<?xml version="1.0" standalone="no"?><svg xmlns="http://www.w3.org/2000/svg" viewBox="0 0 1440 320"><path fill="#ffffff" fill-opacity="1" d="M0,96L20,106.7C40,117,80,139,120,149.3C160,160,200,160,240,149.3C280,139,320,117,360,106.7C400,96,440,96,480,101.3C520,107,560,117,600,144C640,171,680,213,720,202.7C760,192,800,128,840,138.7C880,149,920,235,960,272C1000,309,1040,299,1080,256C1120,213,1160,139,1200,144C1240,149,1280,235,1320,245.3C1360,256,1400,192,1420,160L1440,128L1440,320L1420,320C1400,320,1360,320,1320,320C1280,320,1240,320,1200,320C1160,320,1120,320,1080,320C1040,320,1000,320,960,320C920,320,880,320,840,320C800,320,760,320,720,320C680,320,640,320,600,320C560,320,520,320,480,320C440,320,400,320,360,320C320,320,280,320,240,320C200,320,160,320,120,320C80,320,40,320,20,320L0,320Z"></path></svg>